<?xml version="1.0" standalone="no"?>
<!DOCTYPE svg PUBLIC "-//W3C//DTD SVG 20010904//EN"
 "http://www.w3.org/TR/2001/REC-SVG-20010904/DTD/svg10.dtd">
<svg version="1.0" xmlns="http://www.w3.org/2000/svg"
 width="2153.000000pt" height="2637.000000pt" viewBox="0 0 2153.000000 2637.000000"
 preserveAspectRatio="xMidYMid meet">

<g transform="translate(0.000000,2637.000000) scale(0.100000,-0.100000)"
fill="#000000" stroke="none">
<path d="M0 14050 l0 -12320 3990 0 3990 0 0 250 0 250 -3740 0 -3740 0 0
11820 0 11820 10265 0 10265 0 0 -11820 0 -11820 -3745 0 -3745 0 2 -247 3
-248 3988 -3 3987 -2 0 12320 0 12320 -10760 0 -10760 0 0 -12320z"/>
<path d="M4207 22894 c-11 -11 -9 -762 3 -769 5 -3 137 -12 292 -20 364 -19
507 -31 643 -55 218 -38 359 -104 476 -220 127 -127 204 -310 246 -590 17
-109 18 -471 18 -6600 0 -6129 -1 -6491 -18 -6600 -88 -582 -322 -785 -962
-839 -66 -6 -219 -15 -340 -21 -121 -6 -253 -13 -293 -16 l-72 -6 2 -387 3
-386 3660 0 c3779 0 3861 1 4460 41 2025 135 3328 636 4122 1584 288 344 517
780 662 1260 206 682 266 1615 151 2360 -274 1782 -1477 3068 -3370 3605 -412
117 -923 205 -1332 231 -60 4 -108 11 -108 15 0 12 30 17 140 24 399 25 975
102 1324 176 1047 223 1727 596 2171 1190 240 321 413 745 494 1209 48 274 56
385 56 800 0 425 -9 543 -61 853 -277 1639 -1393 2625 -3389 2992 -403 74
-796 117 -1425 157 -199 12 -7541 24 -7553 12z m6333 -924 c522 -17 851 -51
1214 -126 1356 -282 1978 -1085 2035 -2628 22 -575 -45 -1026 -216 -1461 -209
-532 -577 -980 -1050 -1277 -365 -230 -792 -383 -1283 -462 -301 -49 -297 -49
-1417 -53 l-1063 -4 0 3010 0 3011 738 0 c405 0 874 -5 1042 -10z m-2990
-7330 l0 -7050 -270 0 c-178 0 -270 3 -270 10 0 6 11 66 25 134 14 67 33 179
42 247 16 116 17 542 21 6569 2 4609 0 6488 -8 6595 -12 169 -31 305 -60 438
-11 50 -20 95 -20 99 0 4 122 8 270 8 l270 0 0 -7050z m6930 6711 c106 -81
314 -288 404 -401 366 -459 589 -1036 647 -1669 15 -166 7 -545 -15 -691 -52
-348 -131 -604 -272 -881 -199 -391 -467 -678 -848 -909 l-39 -23 38 59 c410
638 651 1296 727 1979 17 157 17 624 -1 770 -76 634 -296 1206 -663 1722 -48
68 -82 121 -76 117 7 -4 51 -37 98 -73z m-4010 -6321 c369 -16 617 -44 925
-105 1017 -204 1782 -696 2260 -1455 80 -127 225 -416 282 -560 149 -380 238
-772 289 -1260 21 -210 30 -795 15 -1015 -44 -649 -175 -1167 -411 -1622 -470
-908 -1350 -1457 -2600 -1623 -389 -51 -426 -53 -1477 -57 l-993 -5 0 3856 0
3856 733 0 c402 0 842 -5 977 -10z m4286 -1105 c562 -331 991 -969 1204 -1790
357 -1377 54 -2937 -730 -3758 -159 -167 -308 -286 -490 -391 l-65 -38 105
108 c164 169 277 328 400 566 235 452 385 1021 457 1728 25 248 25 919 0 1170
-110 1089 -432 1933 -911 2388 -42 39 -73 72 -70 72 3 0 48 -25 100 -55z"/>
<path d="M9710 4197 c-83 -30 -203 -93 -226 -118 -15 -16 -15 -24 -5 -62 7
-23 11 -61 9 -82 l-3 -40 -105 -7 c-109 -6 -214 -22 -257 -39 l-25 -9 3 -162
4 -162 -30 -9 c-16 -5 -41 -14 -55 -21 l-25 -12 -1 -169 c-2 -180 -14 -265
-47 -330 -44 -88 -230 -235 -296 -235 -12 0 -53 16 -91 35 -76 38 -120 44
-145 18 -24 -24 -15 -62 45 -191 39 -85 53 -127 59 -185 5 -41 11 -80 15 -85
3 -6 31 -22 61 -36 63 -29 105 -67 105 -95 0 -10 -32 -53 -71 -95 -44 -47 -69
-82 -67 -93 2 -10 109 -100 238 -200 129 -101 289 -232 355 -292 227 -207 568
-480 601 -481 11 0 58 11 105 25 46 13 91 25 100 25 9 0 33 -18 53 -41 35 -38
37 -42 29 -87 -21 -122 -14 -155 69 -324 53 -109 82 -158 93 -158 9 0 69 13
133 29 158 39 172 42 172 35 0 -3 -16 -33 -37 -65 -45 -74 -48 -123 -13 -194
22 -44 31 -52 77 -69 57 -20 73 -45 73 -118 0 -30 7 -46 29 -69 38 -38 78 -38
113 -1 37 38 48 73 46 142 -2 84 19 111 98 125 113 20 118 24 149 130 44 149
51 158 197 224 149 68 210 108 219 141 4 14 7 57 8 97 2 115 65 234 147 274
46 22 76 63 173 238 28 50 93 147 145 214 51 67 112 150 135 184 49 73 70 86
187 113 72 17 95 27 128 58 96 88 141 102 219 67 68 -30 117 -32 140 -7 9 10
25 43 36 73 18 53 53 108 137 213 37 48 45 52 110 66 113 24 118 37 46 109
-66 66 -95 79 -231 106 -144 29 -158 35 -223 86 -60 47 -203 122 -268 139 -61
16 -365 151 -478 211 -80 43 -103 51 -165 56 -133 9 -144 17 -277 218 -29 44
-64 92 -77 106 -22 24 -27 25 -73 16 -57 -11 -41 -20 -206 120 -110 95 -124
111 -174 200 -30 54 -71 113 -90 131 -64 62 -344 275 -385 293 -55 24 -193 38
-440 45 -203 5 -212 4 -275 -19z"/>
</g>
</svg>
